HIERARCHY
ROOT Hips
{
	OFFSET 0.000000 0.000000 0.000000 
	CHANNELS 6 Xposition Yposition Zposition Zrotation Yrotation Xrotation
	JOINT LeftUpLeg
	{
		OFFSET 1.363060 -1.794630 0.839290 
		CHANNELS 3 Zrotation Yrotation Xrotation
		JOINT LeftLeg
		{
			OFFSET 2.448110 -6.726130 0.000000 
			CHANNELS 3 Zrotation Yrotation Xrotation
			JOINT LeftFoot
			{
				OFFSET 2.562200 -7.039590 0.000000 
				CHANNELS 3 Zrotation Yrotation Xrotation
				JOINT LeftToeBase
				{
					OFFSET 0.157640 -0.433110 2.322550 
					CHANNELS 3 Zrotation Yrotation Xrotation
					End Site
					{
						OFFSET 0.000000 0.000000 0.000000 
					}
				}
			}
		}
	}
	JOINT RightUpLeg
	{
		OFFSET -1.305520 -1.794630 0.839290 
		CHANNELS 3 Zrotation Yrotation Xrotation
		JOINT RightLeg
		{
			OFFSET -2.542530 -6.985550 0.000000 
			CHANNELS 3 Zrotation Yrotation Xrotation
			JOINT RightFoot
			{
				OFFSET -2.568260 -7.056230 0.000000 
				CHANNELS 3 Zrotation Yrotation Xrotation
				JOINT RightToeBase
				{
					OFFSET -0.164730 -0.452590 2.363150 
					CHANNELS 3 Zrotation Yrotation Xrotation
					End Site
					{
						OFFSET 0.000000 0.000000 0.000000 
					}
				}
			}
		}
	}
	JOINT Spine
	{
		OFFSET 0.028270 2.035590 -0.193380 
		CHANNELS 3 Zrotation Yrotation Xrotation
		JOINT Spine1
		{
			OFFSET 0.056720 2.048850 -0.042750 
			CHANNELS 3 Zrotation Yrotation Xrotation
			JOINT Neck1
			{
				OFFSET -0.054170 1.746240 0.172020 
				CHANNELS 3 Zrotation Yrotation Xrotation
				JOINT Head
				{
					OFFSET 0.104070 1.761360 -0.123970 
					CHANNELS 3 Zrotation Yrotation Xrotation
					End Site
					{
						OFFSET 0.000000 0.000000 0.000000 
					}
				}
			}
			JOINT LeftArm
			{
				OFFSET 3.362410 1.200890 -0.311210 
				CHANNELS 3 Zrotation Yrotation Xrotation
				JOINT LeftForeArm
				{
					OFFSET 4.983000 -0.000000 -0.000000 
					CHANNELS 3 Zrotation Yrotation Xrotation
					JOINT LeftHand
					{
						OFFSET 3.483560 -0.000000 -0.000000 
						CHANNELS 3 Zrotation Yrotation Xrotation
						JOINT LeftHandIndex1
						{
							OFFSET 0.715260 -0.000000 -0.000000 
							CHANNELS 3 Zrotation Yrotation Xrotation
							End Site
							{
								OFFSET 0.000000 0.000000 0.000000 
							}
						}
					}
				}
			}
			JOINT RightArm
			{
				OFFSET -3.136600 1.374050 -0.404650 
				CHANNELS 3 Zrotation Yrotation Xrotation
				JOINT RightForeArm
				{
					OFFSET -5.241900 -0.000000 -0.000000 
					CHANNELS 3 Zrotation Yrotation Xrotation
					JOINT RightHand
					{
						OFFSET -3.444170 -0.000000 -0.000000 
						CHANNELS 3 Zrotation Yrotation Xrotation
						JOINT RightHandIndex1
						{
							OFFSET -0.622530 -0.000000 -0.000000 
							CHANNELS 3 Zrotation Yrotation Xrotation
							End Site
							{
								OFFSET 0.000000 0.000000 0.000000 
							}
						}
					}
				}
			}
		}
	}
}
MOTION
Frames: 12
Frame Time: 0.041667
5.640345 9.879792 12.388212 -3.330369 -24.421246 -30.061138 -8.148480 14.325437 -51.227702 23.218593 20.305810 98.951363 2.280832 -16.922398 1.427926 0.843100 -5.856700 -16.369300 17.816295 8.506787 -51.279467 -23.370447 -23.544428 100.195510 -2.440175 10.920260 6.317538 -0.992800 6.341600 -17.778700 0.500893 2.076339 1.246933 -1.821528 1.267156 -2.793012 10.485568 -21.826561 10.371004 20.095300 -12.833300 5.717700 -54.994641 14.504540 30.221542 84.293589 -56.566847 -64.824033 0.830741 -1.870533 -10.690812 -7.125000 0.000000 0.000000 60.941330 -12.172096 28.731721 -72.590290 57.006815 -52.371619 -0.844463 1.795238 21.408644 7.125000 0.000000 0.000000 
5.638818 9.879683 12.388539 -3.344851 -24.407883 -30.012849 -8.143884 14.288574 -51.270441 23.221721 20.309462 98.961745 2.279051 -16.914617 1.436984 0.843900 -5.859600 -16.377600 17.818579 8.487971 -51.332652 -23.373467 -23.542081 100.203719 -2.440057 10.918648 6.310747 -0.997600 6.356400 -17.822100 0.504562 2.062057 1.253457 -1.801925 1.261095 -2.774068 10.470993 -21.801213 10.370387 20.092500 -12.817400 5.703600 -54.994966 14.516047 30.175679 84.391757 -56.583579 -64.918954 0.830260 -1.870590 -10.698253 -7.125000 0.000000 0.000000 60.929988 -12.155256 28.730049 -72.656613 57.019676 -52.434345 -0.845254 1.795315 21.402403 7.125000 0.000000 0.000000 
5.637182 9.879574 12.388757 -3.363231 -24.391582 -29.956490 -8.137470 14.241778 -51.319112 23.224890 20.314175 98.972949 2.276760 -16.904284 1.450888 0.845000 -5.863100 -16.387900 17.820479 8.468855 -51.391943 -23.376757 -23.539581 100.212886 -2.439970 10.918947 6.309396 -0.998700 6.359500 -17.831200 0.509322 2.046134 1.258676 -1.778976 1.254132 -2.758881 10.450303 -21.777605 10.372366 20.082500 -12.802500 5.690500 -54.998601 14.533225 30.125449 84.505665 -56.602499 -65.028262 0.829733 -1.870505 -10.706184 -7.125000 0.000000 0.000000 60.914740 -12.143151 28.725744 -72.736693 57.035330 -52.511141 -0.846200 1.795465 21.395689 7.125000 0.000000 0.000000 
5.635546 9.879574 12.388757 -3.383925 -24.377046 -29.895636 -8.128321 14.191804 -51.371585 23.228867 20.318922 98.986127 2.274445 -16.891364 1.461131 0.847800 -5.872600 -16.415100 17.824760 8.452519 -51.455655 -23.379585 -23.537506 100.220986 -2.439556 10.917049 6.309757 -0.999900 6.363400 -17.842700 0.515815 2.027509 1.262827 -1.750361 1.245882 -2.746587 10.422124 -21.750144 10.382547 20.062800 -12.786400 5.682500 -55.010898 14.557840 30.062577 84.638897 -56.623993 -65.155683 0.829121 -1.869974 -10.712234 -7.125000 0.000000 0.000000 60.892039 -12.128575 28.725411 -72.825610 57.052219 -52.596739 -0.847290 1.795784 21.387770 7.125000 0.000000 0.000000 
5.634019 9.879683 12.388648 -3.409117 -24.363350 -29.829193 -8.115155 14.135414 -51.428526 23.233275 20.324071 98.999998 2.272099 -16.876292 1.469134 0.851900 -5.886600 -16.455800 17.832867 8.438617 -51.522359 -23.382048 -23.535837 100.228011 -2.438870 10.913769 6.311277 -1.000700 6.365800 -17.849600 0.524187 2.005668 1.265767 -1.716393 1.235786 -2.741438 10.392656 -21.724368 10.390668 20.043500 -12.770900 5.673900 -55.032203 14.592354 29.989007 84.793685 -56.648539 -65.303032 0.828337 -1.869060 -10.719017 -7.125000 0.000000 0.000000 60.862942 -12.114353 28.728397 -72.924921 57.070976 -52.692375 -0.848519 1.796258 21.380409 7.125000 0.000000 0.000000 
5.632602 9.879683 12.388321 -3.436634 -24.351926 -29.758288 -8.098607 14.075074 -51.489886 23.238019 20.329335 99.014793 2.269879 -16.861295 1.475483 0.855700 -5.899100 -16.492000 17.842810 8.429527 -51.593235 -23.384481 -23.534635 100.235024 -2.437821 10.908962 6.315032 -1.000400 6.364900 -17.847000 0.533753 1.980950 1.268433 -1.679755 1.224487 -2.738822 10.363934 -21.700186 10.397998 20.025400 -12.755900 5.667500 -55.061375 14.633108 29.902588 84.967391 -56.675567 -65.467988 0.827298 -1.867715 -10.726309 -7.125000 0.000000 0.000000 60.828739 -12.095262 28.735863 -73.033482 57.090939 -52.796453 -0.849910 1.796779 21.372603 7.125000 0.000000 0.000000 
5.631402 9.880010 12.387993 -3.463414 -24.344051 -29.680239 -8.081926 14.011864 -51.558230 23.243155 20.334900 99.030303 2.267492 -16.843210 1.479973 0.860000 -5.913600 -16.533900 17.851055 8.430178 -51.672037 -23.386869 -23.534522 100.241846 -2.436587 10.903789 6.322006 -0.998500 6.359100 -17.829900 0.544537 1.953988 1.270014 -1.638589 1.212101 -2.737350 10.335177 -21.668352 10.409792 20.007200 -12.738000 5.663800 -55.100235 14.681270 29.802594 85.158560 -56.704858 -65.649060 0.826128 -1.865736 -10.736524 -7.125000 0.000000 0.000000 60.788060 -12.073414 28.749630 -73.152193 57.112428 -52.909692 -0.851453 1.797439 21.366033 7.125000 0.000000 0.000000 
5.630311 9.880228 12.387448 -3.492053 -24.336887 -29.594771 -8.063872 13.940629 -51.632665 23.248502 20.341064 99.046751 2.264873 -16.820998 1.484022 0.866000 -5.933900 -16.592800 17.858361 8.437863 -51.758734 -23.389580 -23.535020 100.249670 -2.435130 10.897364 6.331077 -0.995600 6.350200 -17.803800 0.556163 1.925708 1.270301 -1.595559 1.198784 -2.741127 10.314312 -21.631821 10.416715 20.001600 -12.718100 5.656200 -55.144785 14.739724 29.697697 85.363873 -56.736316 -65.842790 0.824754 -1.863571 -10.746897 -7.125000 0.000000 0.000000 60.746292 -12.056699 28.765553 -73.284299 57.136823 -53.035545 -0.853115 1.798099 21.362747 7.125000 0.000000 0.000000 
5.629439 9.880665 12.387012 -3.519569 -24.331628 -29.500895 -8.047411 13.862533 -51.714603 23.253564 20.348137 99.063023 2.261395 -16.791806 1.492492 0.872100 -5.954000 -16.651000 17.862034 8.455213 -51.855581 -23.392251 -23.536475 100.257105 -2.433259 10.889575 6.342739 -0.992600 6.340800 -17.776500 0.567717 1.897775 1.269484 -1.553140 1.185692 -2.746506 10.298410 -21.589570 10.422885 20.003800 -12.696300 5.646900 -55.191830 14.805469 29.591190 85.580028 -56.769218 -66.045755 0.823315 -1.861516 -10.757307 -7.125000 0.000000 0.000000 60.704023 -12.043189 28.781684 -73.425642 57.163297 -53.170062 -0.854844 1.798769 21.362794 7.125000 0.000000 0.000000 
5.628784 9.880992 12.386685 -3.548012 -24.327123 -29.396898 -8.031688 13.775308 -51.805763 23.259285 20.356049 99.081495 2.257478 -16.751924 1.497404 0.881300 -5.984500 -16.739500 17.863774 8.480257 -51.964073 -23.395442 -23.538601 100.265624 -2.430928 10.878273 6.353098 -0.990200 6.333400 -17.754800 0.579170 1.869529 1.267141 -1.513695 1.172149 -2.753419 10.278390 -21.541008 10.431947 20.001400 -12.671500 5.634300 -55.238369 14.877995 29.485636 85.803121 -56.803030 -66.254122 0.821955 -1.860093 -10.769920 -7.125000 0.000000 0.000000 60.664036 -12.033391 28.797174 -73.576164 57.191648 -53.312779 -0.856649 1.799334 21.369639 7.125000 0.000000 0.000000 
5.628130 9.881537 12.386467 -3.577162 -24.321826 -29.279318 -8.018718 13.676831 -51.908180 23.264794 20.365189 99.099722 2.252587 -16.700970 1.504559 0.892400 -6.021300 -16.846200 17.861730 8.514274 -52.086619 -23.398246 -23.541687 100.272568 -2.427770 10.861537 6.362887 -0.989700 6.331900 -17.750500 0.589724 1.842954 1.262999 -1.479193 1.159133 -2.761004 10.257006 -21.490491 10.442816 19.998500 -12.646700 5.619800 -55.280647 14.957776 29.386702 86.033201 -56.837974 -66.467952 0.820657 -1.859366 -10.782998 -7.125000 0.000000 0.000000 60.630458 -12.031599 28.807181 -73.735475 57.222432 -53.464123 -0.858365 1.799795 21.383155 7.125000 0.000000 0.000000 
5.627585 9.881973 12.386358 -3.604413 -24.319762 -29.152114 -8.007659 13.573193 -52.020609 23.271040 20.374868 99.121163 2.246949 -16.642585 1.514069 0.903800 -6.058600 -16.954700 17.856710 8.561858 -52.221443 -23.401636 -23.546044 100.280562 -2.423470 10.837178 6.371935 -0.992400 6.340100 -17.774400 0.599671 1.818896 1.257292 -1.448058 1.147167 -2.770835 10.232952 -21.436917 10.455046 19.994000 -12.620900 5.602600 -55.320650 15.041833 29.292587 86.265737 -56.873030 -66.682820 0.819467 -1.859322 -10.800715 -7.125000 0.000000 0.000000 60.599008 -12.035916 28.814648 -73.901617 57.254855 -53.621977 -0.860092 1.800225 21.402059 7.125000 0.000000 0.000000 
